M48
;FILE_FORMAT=4:2
METRIC,0000.00
;TYPE=PLATED
T01C0.50
T02C0.85
T03C0.97
T04C1.10
%
T01
X+004885Y+004010
X+004785Y+004110
X+004765Y+003890
X+004665Y+003990
X+005145Y+004330
X+004715Y+005950
Y+005830
X+005157Y+005716
Y+005970
Y+005843
X+004985Y+006470
Y+006590
X+005145Y+006310
Y+006190
X+005245Y+006710
X+005725Y+004350
X+005865
X+006005
X+005405Y+006310
X+006285Y+004330
X+006540Y+008100
X+006680Y+007800
X+006460Y+008280
X+006575Y+011300
X+006450
Y+011175
X+006700Y+011550
X+006575
X+006450
X+007105Y+004490
Y+004350
X+007525Y+004450
Y+004310
X+007105Y+004910
Y+004770
Y+005050
X+006998Y+005620
Y+005493
X+007105Y+006310
Y+006170
X+007300Y+008500
X+007350Y+008675
X+006950Y+008500
X+007525Y+008600
X+007493Y+011049
X+007366
X+007493Y+011684
X+007366
X+007493Y+011811
X+007366
X+008045Y+004210
X+007945Y+004110
X+007845Y+004010
X+008065Y+003990
X+007965Y+003890
X+008165Y+004090
X+007725Y+008575
X+007811Y+010986
X+007938
X+007811Y+011652
X+007938
X+008541Y+009335
X+008668Y+009271
X+008573Y+012002
X+009475Y+006525
X+009675Y+006450
X+009550Y+007125
X+009725Y+007550
Y+008050
X+009440Y+009000
X+009398Y+010001
X+009303Y+011049
X+009620Y+010986
X+009747
X+009303Y+011684
X+009620Y+011652
X+009747
X+009303Y+011811
X+010550Y+006263
X+010413Y+006300
X+010000Y+007400
X+010413Y+007050
Y+007350
X+010100Y+007550
Y+008050
X+010414Y+009462
X+010541Y+009398
X+010287Y+009525
X+010351Y+012002
X+010800Y+005905
X+010920Y+005840
X+011200Y+006500
X+010900Y+006263
X+011350
Y+007050
X+010800Y+007200
X+010750Y+007438
X+011050
X+011300
X+010900Y+008025
X+010800Y+008125
X+011250Y+008975
X+011200Y+008500
X+011208Y+010001
X+011113Y+011049
X+010986
X+011113Y+011684
X+010986
Y+011811
X+011113
X+011588Y+006750
X+011575Y+006275
X+011950Y+007525
X+012038Y+006988
X+011588Y+007438
X+012065Y+009589
X+011557Y+010986
Y+011652
X+012450Y+007425
X+012475Y+007550
X+012825Y+007775
X+012795Y+011049
Y+011684
Y+011811
X+013375Y+005800
X+013250
X+013125
Y+005925
X+013250
X+013375
X+013075Y+009000
X+013240Y+010986
X+013367
X+013240Y+011652
X+013367
X+004715Y+006070
X+006450Y+011425
X+006575
X+006700
X+007105Y+004630
X+007493Y+009112
X+007366
X+007125Y+008450
X+007811Y+009081
X+007938
X+007906Y+009970
X+008541Y+009081
X+008668
X+009303Y+009112
X+009450Y+006825
X+009620Y+009081
X+009747
X+009675Y+006900
X+009716Y+009970
X+010275Y+006050
X+010025Y+006900
X+010450Y+009075
X+010575
X+010325
X+010420Y+006800
X+011113Y+009112
X+010986
X+011300Y+008400
X+011725Y+006125
X+011557Y+009081
X+012050Y+006800
Y+009075
X+011950Y+007650
X+011525Y+009970
X+012795Y+009112
X+012300Y+009150
X+013240Y+009081
X+013367
X+013335Y+009970
X+006145Y+004350
X+005385Y+006710
X+005265Y+006310
Y+006190
X+007650Y+009000
X+007588Y+010001
X+009176Y+011049
Y+011684
Y+011811
X+006825Y+011550
X+010680Y+005840
X+010650Y+006650
X+009875Y+007400
X+012160Y+009684
X+012256Y+009779
X+011430Y+010986
Y+011652
X+012160Y+012002
X+013700Y+007775
X+013018Y+010001
X+012922Y+011049
Y+011684
Y+011811
X+006903Y+005398
X+009176Y+009112
X+006800Y+008400
X+011430Y+009081
X+012175Y+009100
X+009900Y+006900
X+012922Y+009112
T02
X+007965Y+006550
Y+006350
Y+006150
Y+005750
Y+005550
Y+005350
Y+004950
Y+004750
Y+005950
Y+005150
X+007765Y+006550
Y+006350
Y+006150
Y+005750
Y+005550
Y+005350
Y+004950
Y+004750
Y+005950
Y+005150
X+008165Y+006550
Y+006350
Y+006150
Y+005750
Y+005550
Y+005350
Y+004950
Y+004750
Y+005950
Y+005150
X+008900Y+007700
Y+007500
Y+007300
Y+006900
Y+006700
Y+006500
Y+006100
Y+005900
Y+007100
Y+006300
X+009300Y+007700
Y+007500
Y+007300
Y+006900
Y+006700
Y+006500
Y+006100
Y+005900
Y+007100
Y+006300
X+006700Y+008100
X+006900
X+007100
X+007500
X+007700
X+007900
X+008300
X+008500
X+007300
X+008100
X+006700Y+008300
X+006900
X+007100
X+007500
X+007700
X+007900
X+008300
X+008500
X+007300
X+008100
X+009100Y+007700
Y+007500
Y+007300
Y+006900
Y+006700
Y+006500
Y+006100
Y+005900
Y+007100
Y+006300
X+005565Y+007150
X+005765
X+005965
X+006365
X+006565
X+006765
X+007165
X+007365
X+006165
X+006965
X+005565Y+006950
X+005765
X+005965
X+006365
X+006565
X+006765
X+007165
X+007365
X+006165
X+006965
T03
X+013300Y+007875
X+013046
Y+008129
X+013300
T04
X+012625Y+007100
X+012879
Y+006846
X+012625
X+012879Y+006592
X+012625
X+012879Y+006338
X+012625
Y+006084
X+012879
T00
M30
